<svg width="39" height="39" viewBox="0 0 39 39" fill="none" xmlns="http://www.w3.org/2000/svg">
<path d="M10.1144 23.4703C10.1138 24.1634 9.90769 24.8408 9.52217 25.4169C9.13664 25.9929 8.58899 26.4417 7.94843 26.7066C7.30788 26.9714 6.60318 27.0404 5.92342 26.9048C5.24366 26.7693 4.61936 26.4352 4.12944 25.9448C3.63952 25.4545 3.30597 24.8299 3.17096 24.15C3.03595 23.4702 3.10554 22.7655 3.37093 22.1252C3.63632 21.4849 4.0856 20.9376 4.66198 20.5526C5.23835 20.1675 5.91594 19.962 6.60909 19.962H10.1144V23.4703ZM11.8811 23.4703C11.8811 22.5406 12.2504 21.649 12.9078 20.9917C13.5652 20.3343 14.4568 19.965 15.3864 19.965C16.3161 19.965 17.2076 20.3343 17.865 20.9917C18.5224 21.649 18.8917 22.5406 18.8917 23.4703V32.2476C18.8917 33.1772 18.5224 34.0688 17.865 34.7262C17.2076 35.3836 16.3161 35.7529 15.3864 35.7529C14.4568 35.7529 13.5652 35.3836 12.9078 34.7262C12.2504 34.0688 11.8811 33.1772 11.8811 32.2476V23.4703ZM15.3864 9.39408C14.6933 9.39349 14.0158 9.18741 13.4398 8.80189C12.8638 8.41637 12.4149 7.86871 12.1501 7.22816C11.8852 6.5876 11.8163 5.8829 11.9518 5.20314C12.0874 4.52339 12.4215 3.89909 12.9118 3.40916C13.4022 2.91924 14.0268 2.58569 14.7066 2.45068C15.3865 2.31567 16.0912 2.38526 16.7315 2.65065C17.3718 2.91605 17.9191 3.36533 18.3041 3.9417C18.6892 4.51807 18.8947 5.19566 18.8947 5.88881V9.39408H15.3864ZM15.3864 11.1609C16.3161 11.1609 17.2076 11.5302 17.865 12.1875C18.5224 12.8449 18.8917 13.7365 18.8917 14.6661C18.8917 15.5958 18.5224 16.4874 17.865 17.1447C17.2076 17.8021 16.3161 18.1714 15.3864 18.1714H6.60909C5.67943 18.1714 4.78786 17.8021 4.13049 17.1447C3.47312 16.4874 3.10382 15.5958 3.10382 14.6661C3.10382 13.7365 3.47312 12.8449 4.13049 12.1875C4.78786 11.5302 5.67943 11.1609 6.60909 11.1609H15.3864ZM29.4626 14.6661C29.4632 13.973 29.6693 13.2956 30.0548 12.7195C30.4403 12.1435 30.988 11.6947 31.6285 11.4298C32.2691 11.165 32.9738 11.096 33.6535 11.2316C34.3333 11.3672 34.9576 11.7012 35.4475 12.1916C35.9374 12.6819 36.271 13.3065 36.406 13.9864C36.541 14.6662 36.4714 15.3709 36.206 16.0112C35.9406 16.6515 35.4914 17.1988 34.915 17.5838C34.3386 17.9689 33.661 18.1744 32.9679 18.1744H29.4626V14.6661ZM27.6958 14.6661C27.6958 15.5958 27.3265 16.4874 26.6691 17.1447C26.0118 17.8021 25.1202 18.1714 24.1905 18.1714C23.2609 18.1714 22.3693 17.8021 21.7119 17.1447C21.0546 16.4874 20.6853 15.5958 20.6853 14.6661V5.88881C20.6853 4.95916 21.0546 4.06758 21.7119 3.41021C22.3693 2.75285 23.2609 2.38355 24.1905 2.38355C25.1202 2.38355 26.0118 2.75285 26.6691 3.41021C27.3265 4.06758 27.6958 4.95916 27.6958 5.88881V14.6661ZM24.1905 28.7423C24.8837 28.7429 25.5611 28.949 26.1372 29.3345C26.7132 29.72 27.162 30.2677 27.4269 30.9083C27.6917 31.5488 27.7607 32.2535 27.6251 32.9333C27.4895 33.613 27.1555 34.2373 26.6651 34.7272C26.1748 35.2172 25.5502 35.5507 24.8703 35.6857C24.1904 35.8207 23.4858 35.7511 22.8455 35.4858C22.2051 35.2204 21.6579 34.7711 21.2728 34.1947C20.8878 33.6183 20.6823 32.9407 20.6823 32.2476V28.7423H24.1905ZM24.1905 26.9755C23.2609 26.9755 22.3693 26.6062 21.7119 25.9489C21.0546 25.2915 20.6853 24.3999 20.6853 23.4703C20.6853 22.5406 21.0546 21.649 21.7119 20.9917C22.3693 20.3343 23.2609 19.965 24.1905 19.965H32.9679C33.8975 19.965 34.7891 20.3343 35.4465 20.9917C36.1038 21.649 36.4731 22.5406 36.4731 23.4703C36.4731 24.3999 36.1038 25.2915 35.4465 25.9489C34.7891 26.6062 33.8975 26.9755 32.9679 26.9755H24.1905Z" fill="#363062"/>
</svg>
