<svg width="210" height="60" viewBox="0 0 210 60" fill="none" xmlns="http://www.w3.org/2000/svg">
<path d="M67.88 44L60.36 34.56V44H54.76V14.4H60.36V31.24L67.8 21.84H75.08L65.32 32.96L75.16 44H67.88ZM83.7194 25.28C84.4394 24.1067 85.3727 23.1867 86.5194 22.52C87.6927 21.8533 89.026 21.52 90.5194 21.52V27.4H89.0394C87.2794 27.4 85.946 27.8133 85.0394 28.64C84.1594 29.4667 83.7194 30.9067 83.7194 32.96V44H78.1194V21.84H83.7194V25.28ZM97.1313 19.2C96.1446 19.2 95.3179 18.8933 94.6513 18.28C94.0113 17.64 93.6913 16.8533 93.6913 15.92C93.6913 14.9867 94.0113 14.2133 94.6513 13.6C95.3179 12.96 96.1446 12.64 97.1313 12.64C98.1179 12.64 98.9313 12.96 99.5713 13.6C100.238 14.2133 100.571 14.9867 100.571 15.92C100.571 16.8533 100.238 17.64 99.5713 18.28C98.9313 18.8933 98.1179 19.2 97.1313 19.2ZM99.8913 21.84V44H94.2913V21.84H99.8913ZM111.024 25.04C111.744 24.0267 112.731 23.1867 113.984 22.52C115.264 21.8267 116.717 21.48 118.344 21.48C120.237 21.48 121.944 21.9467 123.464 22.88C125.011 23.8133 126.224 25.1467 127.104 26.88C128.011 28.5867 128.464 30.5733 128.464 32.84C128.464 35.1067 128.011 37.12 127.104 38.88C126.224 40.6133 125.011 41.96 123.464 42.92C121.944 43.88 120.237 44.36 118.344 44.36C116.717 44.36 115.277 44.0267 114.024 43.36C112.797 42.6933 111.797 41.8533 111.024 40.84V54.56H105.424V21.84H111.024V25.04ZM122.744 32.84C122.744 31.5067 122.464 30.36 121.904 29.4C121.371 28.4133 120.651 27.6667 119.744 27.16C118.864 26.6533 117.904 26.4 116.864 26.4C115.851 26.4 114.891 26.6667 113.984 27.2C113.104 27.7067 112.384 28.4533 111.824 29.44C111.291 30.4267 111.024 31.5867 111.024 32.92C111.024 34.2533 111.291 35.4133 111.824 36.4C112.384 37.3867 113.104 38.1467 113.984 38.68C114.891 39.1867 115.851 39.44 116.864 39.44C117.904 39.44 118.864 39.1733 119.744 38.64C120.651 38.1067 121.371 37.3467 121.904 36.36C122.464 35.3733 122.744 34.2 122.744 32.84Z" fill="#8051AF"/>
<path d="M144.693 38.2V44H141.213C138.733 44 136.8 43.4 135.413 42.2C134.027 40.9733 133.333 38.9867 133.333 36.24V27.36H130.613V21.68H133.333V16.24H140.173V21.68H144.653V27.36H140.173V36.32C140.173 36.9867 140.333 37.4667 140.653 37.76C140.973 38.0533 141.507 38.2 142.253 38.2H144.693ZM158.663 44.32C156.477 44.32 154.503 43.8533 152.743 42.92C151.01 41.9867 149.637 40.6533 148.623 38.92C147.637 37.1867 147.143 35.16 147.143 32.84C147.143 30.5467 147.65 28.5333 148.663 26.8C149.677 25.04 151.063 23.6933 152.823 22.76C154.583 21.8267 156.557 21.36 158.743 21.36C160.93 21.36 162.903 21.8267 164.663 22.76C166.423 23.6933 167.81 25.04 168.823 26.8C169.837 28.5333 170.343 30.5467 170.343 32.84C170.343 35.1333 169.823 37.16 168.783 38.92C167.77 40.6533 166.37 41.9867 164.583 42.92C162.823 43.8533 160.85 44.32 158.663 44.32ZM158.663 38.4C159.97 38.4 161.077 37.92 161.983 36.96C162.917 36 163.383 34.6267 163.383 32.84C163.383 31.0533 162.93 29.68 162.023 28.72C161.143 27.76 160.05 27.28 158.743 27.28C157.41 27.28 156.303 27.76 155.423 28.72C154.543 29.6533 154.103 31.0267 154.103 32.84C154.103 34.6267 154.53 36 155.383 36.96C156.263 37.92 157.357 38.4 158.663 38.4ZM187.572 21.44C190.186 21.44 192.266 22.2933 193.812 24C195.386 25.68 196.172 28 196.172 30.96V44H189.372V31.88C189.372 30.3867 188.986 29.2267 188.212 28.4C187.439 27.5733 186.399 27.16 185.092 27.16C183.786 27.16 182.746 27.5733 181.972 28.4C181.199 29.2267 180.812 30.3867 180.812 31.88V44H173.972V21.68H180.812V24.64C181.506 23.6533 182.439 22.88 183.612 22.32C184.786 21.7333 186.106 21.44 187.572 21.44ZM204.125 44.32C202.925 44.32 201.939 43.9733 201.165 43.28C200.419 42.56 200.045 41.68 200.045 40.64C200.045 39.5733 200.419 38.68 201.165 37.96C201.939 37.24 202.925 36.88 204.125 36.88C205.299 36.88 206.259 37.24 207.005 37.96C207.779 38.68 208.165 39.5733 208.165 40.64C208.165 41.68 207.779 42.56 207.005 43.28C206.259 43.9733 205.299 44.32 204.125 44.32Z" fill="#363062"/>
<circle cx="22" cy="30.25" r="20.5" stroke="#363062" stroke-width="3"/>
<path d="M30.1317 38.3817C25.9923 42.5211 21.3028 45.2233 17.1264 46.2972C12.9123 47.3808 9.51571 46.7571 7.5043 44.7456C5.4929 42.7342 4.86911 39.3376 5.95273 35.1235C7.02666 30.9472 9.72887 26.2576 13.8683 22.1182C18.0077 17.9788 22.6972 15.2766 26.8736 14.2027C31.0876 13.1191 34.4843 13.7429 36.4957 15.7543C38.5071 17.7657 39.1309 21.1623 38.0473 25.3764C36.9733 29.5528 34.2711 34.2423 30.1317 38.3817Z" stroke="#363062" stroke-width="3"/>
<path d="M30.1316 22.1182C34.271 26.2576 36.9732 30.9471 38.0471 35.1235C39.1307 39.3376 38.5069 42.7342 36.4955 44.7456C34.4841 46.757 31.0875 47.3808 26.8734 46.2972C22.697 45.2233 18.0075 42.5211 13.8681 38.3817C9.72871 34.2423 7.0265 29.5528 5.95257 25.3764C4.86895 21.1623 5.49274 17.7657 7.50415 15.7543C9.51555 13.7429 12.9122 13.1191 17.1263 14.2027C21.3026 15.2766 25.9922 17.9788 30.1316 22.1182Z" stroke="#363062" stroke-width="3"/>
</svg>
